<?xml version="1.0" encoding="utf-8"?>
<!DOCTYPE svg PUBLIC "-//W3C//DTD SVG 1.1//EN" "http://www.w3.org/Graphics/SVG/1.1/DTD/svg11.dtd">
<svg version="1.1" xmlns="http://www.w3.org/2000/svg"
	class="waveform">
	<path d="M 0 100
	L 0 40.8216
	L 1 72.1213
	L 2 86.6298
	L 3 62.7766
	L 4 92.0103
	L 5 91.0642
	L 6 36.52
	L 7 75.2983
	L 8 93.9528
	L 9 83.3857
	L 10 79.6472
	L 11 72.4876
	L 12 86.7107
	L 13 44.2228
	L 14 93.8688
	L 15 90.968
	L 16 81.9773
	L 17 87.1349
	L 18 95.0194
	L 19 93.8246
	L 20 78.3914
	L 21 88.0673
	L 22 73.1895
	L 23 49.527
	L 24 72.953
	L 25 72.4448
	L 26 82.5083
	L 27 59.5523
	L 28 84.0922
	L 29 80.8969
	L 30 58.945
	L 31 49.3973
	L 32 82.5449
	L 33 59.0289
	L 34 84.4417
	L 35 91.2702
	L 36 84.4661
	L 37 68.5537
	L 38 77.2149
	L 39 67.4825
	L 40 11.3025
	L 41 76.6854
	L 42 22.8034
	L 43 33.8282
	L 44 60.1169
	L 45 57.8875
	L 46 46.9756
	L 47 54.5656
	L 48 56.5569
	L 49 46.7406
	L 50 56.444
	L 51 71.5217
	L 52 38.9416
	L 53 20.3818
	L 54 77.5628
	L 55 70.2261
	L 56 56.2654
	L 57 66.0741
	L 58 68.2318
	L 59 57.6464
	L 60 39.8495
	L 61 92.0164
	L 62 35.6609
	L 63 53.0183
	L 64 68.7506
	L 65 16.3915
	L 66 31.2479
	L 67 46.057
	L 68 35.3191
	L 69 68.186
	L 70 68.0517
	L 71 72.8202
	L 72 31.547
	L 73 32.345
	L 74 80.0195
	L 75 70.6046
	L 76 35.0398
	L 77 49.4034
	L 78 77.6589
	L 79 63.5273
	L 80 67.803
	L 81 74.5811
	L 82 80.81
	L 83 79.9768
	L 84 65.3493
	L 85 67.4856
	L 86 35.2809
	L 87 47.2381
	L 88 67.0537
	L 89 63.4037
	L 90 61.0019
	L 91 70.5679
	L 92 44.5494
	L 93 34.9513
	L 94 50.4547
	L 95 37.0983
	L 96 34.4646
	L 97 45.6313
	L 98 72.9728
	L 99 44.1038
	L 100 53.3341
	L 101 63.7791
	L 102 55.5177
	L 103 68.5888
	L 104 60.2237
	L 105 55.4491
	L 106 52.1256
	L 107 44.7325
	L 108 81.0938
	L 109 50.6943
	L 110 51.9852
	L 111 70.4321
	L 112 73.2048
	L 113 57.7334
	L 114 44.0489
	L 115 63.8325
	L 116 58.4307
	L 117 22.2068
	L 118 77.2622
	L 119 40.6461
	L 120 38.2092
	L 121 45.5657
	L 122 68.2272
	L 123 23.1071
	L 124 67.1041
	L 125 59.2792
	L 126 31.428
	L 127 10.1474
	L 128 61.2445
	L 129 60.8417
	L 130 46.878
	L 131 62.3615
	L 132 63.9363
	L 133 44.1969
	L 134 43.3058
	L 135 33.3461
	L 136 49.5605
	L 137 69.2984
	L 138 64.037
	L 139 53.4776
	L 140 43.2737
	L 141 51.1444
	L 142 19.3884
	L 143 43.9467
	L 144 28.7393
	L 145 61.3422
	L 146 56.7125
	L 147 41.7859
	L 148 44.4166
	L 149 30.015
	L 150 44.3068
	L 151 64.7603
	L 152 53.058
	L 153 43.9283
	L 154 48.3383
	L 155 44.2656
	L 156 21.7948
	L 157 19.9118
	L 158 55.0951
	L 159 27.9321
	L 160 28.5226
	L 161 57.4892
	L 162 44.1511
	L 163 57.0284
	L 164 31.1518
	L 165 25.6035
	L 166 58.1729
	L 167 27.2927
	L 168 50.7401
	L 169 22.6997
	L 170 45.6877
	L 171 19.4479
	L 172 54.4954
	L 173 15.7826
	L 174 31.3395
	L 175 37.9574
	L 176 36.3353
	L 177 54.0193
	L 178 45.8403
	L 179 37.6782
	L 180 58.9389
	L 181 53.1587
	L 182 44.5952
	L 183 44.0703
	L 184 36.2575
	L 185 58.8504
	L 186 55.0554
	L 187 35.8669
	L 188 49.4018
	L 189 32.0368
	L 190 41.6242
	L 191 58.8168
	L 192 10.9073
	L 193 36.2453
	L 194 43.2371
	L 195 53.2594
	L 196 20.629
	L 197 47.1954
	L 198 39.7504
	L 199 59.2807
	L 200 46.4827
	L 201 66.4983
	L 202 40.7422
	L 203 54.0803
	L 204 58.7939
	L 205 66.0344
	L 206 36.8236
	L 207 39.4818
	L 208 36.5581
	L 209 55.3423
	L 210 52.6414
	L 211 75.6783
	L 212 51.8906
	L 213 65.3066
	L 214 49.4613
	L 215 74.4652
	L 216 52.0783
	L 217 48.265
	L 218 71.7597
	L 219 57.1719
	L 220 33.8389
	L 221 48.0132
	L 222 71.2973
	L 223 36.5246
	L 224 51.2558
	L 225 80.0668
	L 226 74.8207
	L 227 29.8624
	L 228 70.8243
	L 229 68.4774
	L 230 41.2152
	L 231 36.8862
	L 232 40.6079
	L 233 58.6627
	L 234 20.7938
	L 235 52.0829
	L 236 58.6749
	L 237 40.4981
	L 238 69.9591
	L 239 29.0719
	L 240 47.6257
	L 241 56.2761
	L 242 41.2076
	L 243 51.0132
	L 244 25.0313
	L 245 51.6465
	L 246 45.7091
	L 247 46.6659
	L 248 51.7853
	L 249 50.7843
	L 250 42.5352
	L 251 45.1415
	L 252 50.7584
	L 253 21.4225
	L 254 63.9256
	L 255 59.1723
	L 256 51.7579
	L 257 76.7525
	L 258 56.7721
	L 259 39.8114
	L 260 60.0955
	L 261 34.8781
	L 262 22.7989
	L 263 50.2686
	L 264 30.781
	L 265 45.5046
	L 266 40.9848
	L 267 35.0414
	L 268 63.6357
	L 269 52.8443
	L 270 36.8191
	L 271 37.3547
	L 272 41.2442
	L 273 25.1198
	L 274 27.3705
	L 275 53.354
	L 276 13.5456
	L 277 73.983
	L 278 53.8255
	L 279 52.8062
	L 280 58.713
	L 281 53.7614
	L 282 54.9989
	L 283 41.1939
	L 284 73.2215
	L 285 54.2695
	L 286 34.8582
	L 287 60.1169
	L 288 34.2296
	L 289 24.5094
	L 290 42.996
	L 291 53.6988
	L 292 49.4522
	L 293 41.1542
	L 294 58.7329
	L 295 50.3113
	L 296 54.7945
	L 297 54.1856
	L 298 45.3825
	L 299 41.055
	L 300 34.2357
	L 301 18.2043
	L 302 35.316
	L 303 40.3302
	L 304 38.2885
	L 305 46.9787
	L 306 43.3973
	L 307 74.4682
	L 308 33.2606
	L 309 60.5899
	L 310 67.6458
	L 311 63.3824
	L 312 36.7733
	L 313 60.9622
	L 314 40.9604
	L 315 52.8657
	L 316 39.2071
	L 317 39.5611
	L 318 26.5648
	L 319 61.5375
	L 320 70.5603
	L 321 55.2751
	L 322 77.8756
	L 323 70.9235
	L 324 47.0443
	L 325 32.7616
	L 326 67.4947
	L 327 23.6518
	L 328 60.0681
	L 329 48.9166
	L 330 50.7492
	L 331 36.1309
	L 332 65.9673
	L 333 58.9816
	L 334 44.8241
	L 335 16.1763
	L 336 22.5333
	L 337 54.2299
	L 338 59.093
	L 339 58.826
	L 340 41.7493
	L 341 23.9158
	L 342 56.4852
	L 343 36.2743
	L 344 62.5492
	L 345 81.8384
	L 346 63.2359
	L 347 30.8542
	L 348 20.5512
	L 349 39.4574
	L 350 79.2901
	L 351 22.6737
	L 352 35.9951
	L 353 36.491
	L 354 49.6155
	L 355 58.3209
	L 356 57.4511
	L 357 54.1917
	L 358 33.5948
	L 359 22.8462
	L 360 53.6683
	L 361 26.6793
	L 362 42.0331
	L 363 17.0782
	L 364 38.2336
	L 365 54.0544
	L 366 49.9329
	L 367 22.3685
	L 368 53.4684
	L 369 60.3
	L 370 43.91
	L 371 48.114
	L 372 53.0824
	L 373 25.1778
	L 374 48.262
	L 375 51.8067
	L 376 50.4898
	L 377 27.5704
	L 378 53.4501
	L 379 33.3323
	L 380 33.2209
	L 381 48.6282
	L 382 37.4706
	L 383 38.1893
	L 384 45.8571
	L 385 51.7258
	L 386 62.2822
	L 387 35.2519
	L 388 35.8989
	L 389 57.0666
	L 390 29.1879
	L 391 47.7279
	L 392 61.858
	L 393 24.6513
	L 394 32.8028
	L 395 60.1535
	L 396 43.3027
	L 397 36.7473
	L 398 54.828
	L 399 43.0067
	L 400 52.649
	L 401 52.8001
	L 402 62.0624
	L 403 17.922
	L 404 43.4217
	L 405 52.3392
	L 406 53.8942
	L 407 29.3344
	L 408 17.2262
	L 409 47.2762
	L 410 32.9554
	L 411 23.2902
	L 412 14.5695
	L 413 34.9788
	L 414 32.5327
	L 415 42.5733
	L 416 38.0154
	L 417 4.21766
	L 418 37.5332
	L 419 44.9492
	L 420 31.84
	L 421 24.2866
	L 422 31.7667
	L 423 47.2289
	L 424 42.8159
	L 425 35.8242
	L 426 21.1264
	L 427 27.0333
	L 428 22.306
	L 429 37.8018
	L 430 6.16169
	L 431 20.3955
	L 432 61.214
	L 433 47.0855
	L 434 45.201
	L 435 56.6698
	L 436 67.2582
	L 437 58.0493
	L 438 21.0944
	L 439 27.9794
	L 440 20.8197
	L 441 27.2011
	L 442 55.295
	L 443 20.9952
	L 444 43.9009
	L 445 38.0566
	L 446 47.9186
	L 447 56.2365
	L 448 58.797
	L 449 70.0705
	L 450 30.1614
	L 451 41.8455
	L 452 30.1294
	L 453 49.2798
	L 454 38.8012
	L 455 52.356
	L 456 43.3729
	L 457 62.5111
	L 458 56.0182
	L 459 33.6787
	L 460 12.4454
	L 461 20.5847
	L 462 59.9582
	L 463 46.4034
	L 464 58.8153
	L 465 40.0525
	L 466 52.1744
	L 467 55.8733
	L 468 55.0157
	L 469 67.5253
	L 470 77.6742
	L 471 73.7526
	L 472 57.5396
	L 473 65.1555
	L 474 81.4661
	L 475 77.1386
	L 476 86.3552
	L 477 85.4564
	L 478 76.0262
	L 479 79.4198
	L 480 87.3028
	L 481 83.816
	L 482 86.5307
	L 483 90.1257
	L 484 91.2229
	L 485 94.5036
	L 486 91.5799
	L 487 95.877
	L 488 97.5478
	L 489 97.084
	L 490 97.9781
	L 491 98.9227
	L 492 98.9547
	L 493 99.3225
	L 494 99.6216
	L 495 99.6643
	L 496 99.8199
	L 497 99.9191
	L 498 99.9435
	L 499 99.9756
	M 0 100
	L 0 159.178
	L 1 127.879
	L 2 113.37
	L 3 137.223
	L 4 107.99
	L 5 108.936
	L 6 163.48
	L 7 124.702
	L 8 106.047
	L 9 116.614
	L 10 120.353
	L 11 127.512
	L 12 113.289
	L 13 155.777
	L 14 106.131
	L 15 109.032
	L 16 118.023
	L 17 112.865
	L 18 104.981
	L 19 106.175
	L 20 121.609
	L 21 111.933
	L 22 126.811
	L 23 150.473
	L 24 127.047
	L 25 127.555
	L 26 117.492
	L 27 140.448
	L 28 115.908
	L 29 119.103
	L 30 141.055
	L 31 150.603
	L 32 117.455
	L 33 140.971
	L 34 115.558
	L 35 108.73
	L 36 115.534
	L 37 131.446
	L 38 122.785
	L 39 132.517
	L 40 188.697
	L 41 123.315
	L 42 177.197
	L 43 166.172
	L 44 139.883
	L 45 142.112
	L 46 153.024
	L 47 145.434
	L 48 143.443
	L 49 153.259
	L 50 143.556
	L 51 128.478
	L 52 161.058
	L 53 179.618
	L 54 122.437
	L 55 129.774
	L 56 143.735
	L 57 133.926
	L 58 131.768
	L 59 142.354
	L 60 160.15
	L 61 107.984
	L 62 164.339
	L 63 146.982
	L 64 131.249
	L 65 183.609
	L 66 168.752
	L 67 153.943
	L 68 164.681
	L 69 131.814
	L 70 131.948
	L 71 127.18
	L 72 168.453
	L 73 167.655
	L 74 119.98
	L 75 129.395
	L 76 164.96
	L 77 150.597
	L 78 122.341
	L 79 136.473
	L 80 132.197
	L 81 125.419
	L 82 119.19
	L 83 120.023
	L 84 134.651
	L 85 132.514
	L 86 164.719
	L 87 152.762
	L 88 132.946
	L 89 136.596
	L 90 138.998
	L 91 129.432
	L 92 155.451
	L 93 165.049
	L 94 149.545
	L 95 162.902
	L 96 165.535
	L 97 154.369
	L 98 127.027
	L 99 155.896
	L 100 146.666
	L 101 136.221
	L 102 144.482
	L 103 131.411
	L 104 139.776
	L 105 144.551
	L 106 147.874
	L 107 155.267
	L 108 118.906
	L 109 149.306
	L 110 148.015
	L 111 129.568
	L 112 126.795
	L 113 142.267
	L 114 155.951
	L 115 136.167
	L 116 141.569
	L 117 177.793
	L 118 122.738
	L 119 159.354
	L 120 161.791
	L 121 154.434
	L 122 131.773
	L 123 176.893
	L 124 132.896
	L 125 140.721
	L 126 168.572
	L 127 189.853
	L 128 138.755
	L 129 139.158
	L 130 153.122
	L 131 137.638
	L 132 136.064
	L 133 155.803
	L 134 156.694
	L 135 166.654
	L 136 150.439
	L 137 130.702
	L 138 135.963
	L 139 146.522
	L 140 156.726
	L 141 148.856
	L 142 180.612
	L 143 156.053
	L 144 171.261
	L 145 138.658
	L 146 143.287
	L 147 158.214
	L 148 155.583
	L 149 169.985
	L 150 155.693
	L 151 135.24
	L 152 146.942
	L 153 156.072
	L 154 151.662
	L 155 155.734
	L 156 178.205
	L 157 180.088
	L 158 144.905
	L 159 172.068
	L 160 171.477
	L 161 142.511
	L 162 155.849
	L 163 142.972
	L 164 168.848
	L 165 174.396
	L 166 141.827
	L 167 172.707
	L 168 149.26
	L 169 177.3
	L 170 154.312
	L 171 180.552
	L 172 145.505
	L 173 184.217
	L 174 168.661
	L 175 162.043
	L 176 163.665
	L 177 145.981
	L 178 154.16
	L 179 162.322
	L 180 141.061
	L 181 146.841
	L 182 155.405
	L 183 155.93
	L 184 163.742
	L 185 141.15
	L 186 144.945
	L 187 164.133
	L 188 150.598
	L 189 167.963
	L 190 158.376
	L 191 141.183
	L 192 189.093
	L 193 163.755
	L 194 156.763
	L 195 146.741
	L 196 179.371
	L 197 152.805
	L 198 160.25
	L 199 140.719
	L 200 153.517
	L 201 133.502
	L 202 159.258
	L 203 145.92
	L 204 141.206
	L 205 133.966
	L 206 163.176
	L 207 160.518
	L 208 163.442
	L 209 144.658
	L 210 147.359
	L 211 124.322
	L 212 148.109
	L 213 134.693
	L 214 150.539
	L 215 125.535
	L 216 147.922
	L 217 151.735
	L 218 128.24
	L 219 142.828
	L 220 166.161
	L 221 151.987
	L 222 128.703
	L 223 163.475
	L 224 148.744
	L 225 119.933
	L 226 125.179
	L 227 170.138
	L 228 129.176
	L 229 131.523
	L 230 158.785
	L 231 163.114
	L 232 159.392
	L 233 141.337
	L 234 179.206
	L 235 147.917
	L 236 141.325
	L 237 159.502
	L 238 130.041
	L 239 170.928
	L 240 152.374
	L 241 143.724
	L 242 158.792
	L 243 148.987
	L 244 174.969
	L 245 148.354
	L 246 154.291
	L 247 153.334
	L 248 148.215
	L 249 149.216
	L 250 157.465
	L 251 154.859
	L 252 149.242
	L 253 178.578
	L 254 136.074
	L 255 140.828
	L 256 148.242
	L 257 123.247
	L 258 143.228
	L 259 160.189
	L 260 139.904
	L 261 165.122
	L 262 177.201
	L 263 149.731
	L 264 169.219
	L 265 154.495
	L 266 159.015
	L 267 164.959
	L 268 136.364
	L 269 147.156
	L 270 163.181
	L 271 162.645
	L 272 158.756
	L 273 174.88
	L 274 172.629
	L 275 146.646
	L 276 186.454
	L 277 126.017
	L 278 146.174
	L 279 147.194
	L 280 141.287
	L 281 146.239
	L 282 145.001
	L 283 158.806
	L 284 126.778
	L 285 145.73
	L 286 165.142
	L 287 139.883
	L 288 165.77
	L 289 175.491
	L 290 157.004
	L 291 146.301
	L 292 150.548
	L 293 158.846
	L 294 141.267
	L 295 149.689
	L 296 145.206
	L 297 145.814
	L 298 154.617
	L 299 158.945
	L 300 165.764
	L 301 181.796
	L 302 164.684
	L 303 159.67
	L 304 161.711
	L 305 153.021
	L 306 156.603
	L 307 125.532
	L 308 166.739
	L 309 139.41
	L 310 132.354
	L 311 136.618
	L 312 163.227
	L 313 139.038
	L 314 159.04
	L 315 147.134
	L 316 160.793
	L 317 160.439
	L 318 173.435
	L 319 138.462
	L 320 129.44
	L 321 144.725
	L 322 122.124
	L 323 129.077
	L 324 152.956
	L 325 167.238
	L 326 132.505
	L 327 176.348
	L 328 139.932
	L 329 151.083
	L 330 149.251
	L 331 163.869
	L 332 134.033
	L 333 141.018
	L 334 155.176
	L 335 183.824
	L 336 177.467
	L 337 145.77
	L 338 140.907
	L 339 141.174
	L 340 158.251
	L 341 176.084
	L 342 143.515
	L 343 163.726
	L 344 137.451
	L 345 118.162
	L 346 136.764
	L 347 169.146
	L 348 179.449
	L 349 160.543
	L 350 120.71
	L 351 177.326
	L 352 164.005
	L 353 163.509
	L 354 150.385
	L 355 141.679
	L 356 142.549
	L 357 145.808
	L 358 166.405
	L 359 177.154
	L 360 146.332
	L 361 173.321
	L 362 157.967
	L 363 182.922
	L 364 161.766
	L 365 145.946
	L 366 150.067
	L 367 177.631
	L 368 146.532
	L 369 139.7
	L 370 156.09
	L 371 151.886
	L 372 146.918
	L 373 174.822
	L 374 151.738
	L 375 148.193
	L 376 149.51
	L 377 172.43
	L 378 146.55
	L 379 166.668
	L 380 166.779
	L 381 151.372
	L 382 162.529
	L 383 161.811
	L 384 154.143
	L 385 148.274
	L 386 137.718
	L 387 164.748
	L 388 164.101
	L 389 142.933
	L 390 170.812
	L 391 152.272
	L 392 138.142
	L 393 175.349
	L 394 167.197
	L 395 139.846
	L 396 156.697
	L 397 163.253
	L 398 145.172
	L 399 156.993
	L 400 147.351
	L 401 147.2
	L 402 137.938
	L 403 182.078
	L 404 156.578
	L 405 147.661
	L 406 146.106
	L 407 170.666
	L 408 182.774
	L 409 152.724
	L 410 167.045
	L 411 176.71
	L 412 185.43
	L 413 165.021
	L 414 167.467
	L 415 157.427
	L 416 161.985
	L 417 195.782
	L 418 162.467
	L 419 155.051
	L 420 168.16
	L 421 175.713
	L 422 168.233
	L 423 152.771
	L 424 157.184
	L 425 164.176
	L 426 178.874
	L 427 172.967
	L 428 177.694
	L 429 162.198
	L 430 193.838
	L 431 179.604
	L 432 138.786
	L 433 152.915
	L 434 154.799
	L 435 143.33
	L 436 132.742
	L 437 141.951
	L 438 178.906
	L 439 172.021
	L 440 179.18
	L 441 172.799
	L 442 144.705
	L 443 179.005
	L 444 156.099
	L 445 161.943
	L 446 152.081
	L 447 143.764
	L 448 141.203
	L 449 129.93
	L 450 169.839
	L 451 158.155
	L 452 169.871
	L 453 150.72
	L 454 161.199
	L 455 147.644
	L 456 156.627
	L 457 137.489
	L 458 143.982
	L 459 166.321
	L 460 187.555
	L 461 179.415
	L 462 140.042
	L 463 153.597
	L 464 141.185
	L 465 159.948
	L 466 147.826
	L 467 144.127
	L 468 144.984
	L 469 132.475
	L 470 122.326
	L 471 126.247
	L 472 142.46
	L 473 134.845
	L 474 118.534
	L 475 122.861
	L 476 113.645
	L 477 114.544
	L 478 123.974
	L 479 120.58
	L 480 112.697
	L 481 116.184
	L 482 113.469
	L 483 109.874
	L 484 108.777
	L 485 105.496
	L 486 108.42
	L 487 104.123
	L 488 102.452
	L 489 102.916
	L 490 102.022
	L 491 101.077
	L 492 101.045
	L 493 100.678
	L 494 100.378
	L 495 100.336
	L 496 100.18
	L 497 100.081
	L 498 100.056
	L 499 100.024
	"/>
</svg>